<mxfile host="app.diagrams.net" modified="2023-06-02T07:37:49.469Z" agent="Mozilla/5.0 (Windows NT 10.0; Win64; x64) AppleWebKit/537.36 (KHTML, like Gecko) Chrome/114.0.0.0 Safari/537.36" etag="t9hhyUSskQE6ttwhg4JQ" version="21.3.3" type="github">
  <diagram name="Page-1" id="M8ktuPk8o6lQI4CnK0sZ">
    <mxGraphModel dx="2625" dy="1558" grid="1" gridSize="10" guides="1" tooltips="1" connect="1" arrows="1" fold="1" page="1" pageScale="1" pageWidth="850" pageHeight="1100" math="0" shadow="0">
      <root>
        <mxCell id="0" />
        <mxCell id="1" parent="0" />
        <mxCell id="eauuBhalH3cj8ruG4A8v-31" value="" style="shape=parallelogram;perimeter=parallelogramPerimeter;whiteSpace=wrap;html=1;fixedSize=1;size=110;treeFolding=0;arcSize=60;rounded=1;shadow=1;fillColor=#dae8fc;strokeColor=#6c8ebf;" vertex="1" parent="1">
          <mxGeometry x="132" y="393" width="550" height="137" as="geometry" />
        </mxCell>
        <mxCell id="PNFzSRdrrLlA-0-j2CB9-2" value="SysML" style="rounded=0;whiteSpace=wrap;html=1;rotation=-90;fillColor=#dae8fc;strokeColor=#6c8ebf;" parent="1" vertex="1">
          <mxGeometry x="855" y="378.67" width="635" height="30" as="geometry" />
        </mxCell>
        <mxCell id="PNFzSRdrrLlA-0-j2CB9-5" value="Business Process E-Auction As is" style="rounded=1;whiteSpace=wrap;html=1;fontSize=17;" parent="1" vertex="1">
          <mxGeometry x="960" y="116.17" width="170" height="90" as="geometry" />
        </mxCell>
        <mxCell id="PNFzSRdrrLlA-0-j2CB9-6" value="Functional&amp;nbsp; &amp;amp; Non- Functional Requirements of IBEA Model" style="rounded=1;whiteSpace=wrap;html=1;fontSize=17;" parent="1" vertex="1">
          <mxGeometry x="960" y="238.17" width="170" height="98" as="geometry" />
        </mxCell>
        <mxCell id="PNFzSRdrrLlA-0-j2CB9-7" value="&lt;font style=&quot;font-size: 17px;&quot;&gt;Business Process &amp;amp; Mathematical Formulation of IBEA Model&lt;/font&gt;" style="rounded=1;whiteSpace=wrap;html=1;fillColor=#fff2cc;strokeColor=#d6b656;" parent="1" vertex="1">
          <mxGeometry x="960" y="481.17" width="170" height="105" as="geometry" />
        </mxCell>
        <mxCell id="PNFzSRdrrLlA-0-j2CB9-8" value="Hardware Architecture &amp;amp;&lt;br&gt;Software Architecture of IBEA Model" style="rounded=1;whiteSpace=wrap;html=1;fontSize=17;fillColor=#fff2cc;strokeColor=#d6b656;" parent="1" vertex="1">
          <mxGeometry x="960" y="606.17" width="170" height="99" as="geometry" />
        </mxCell>
        <mxCell id="PNFzSRdrrLlA-0-j2CB9-9" value="BPMN Existing e-Auction System" style="text;html=1;strokeColor=none;fillColor=none;align=left;verticalAlign=middle;whiteSpace=wrap;rounded=0;fontSize=17;" parent="1" vertex="1">
          <mxGeometry x="1210" y="146.17" width="130" height="30" as="geometry" />
        </mxCell>
        <mxCell id="PNFzSRdrrLlA-0-j2CB9-10" value="Use case diagram, Block Definition Dagram" style="text;html=1;strokeColor=none;fillColor=none;align=left;verticalAlign=middle;whiteSpace=wrap;rounded=0;fontSize=17;" parent="1" vertex="1">
          <mxGeometry x="1210" y="411" width="130" height="30" as="geometry" />
        </mxCell>
        <mxCell id="PNFzSRdrrLlA-0-j2CB9-11" value="BPMN diagram" style="text;html=1;strokeColor=none;fillColor=none;align=left;verticalAlign=middle;whiteSpace=wrap;rounded=0;fontSize=17;" parent="1" vertex="1">
          <mxGeometry x="1210" y="518.67" width="130" height="30" as="geometry" />
        </mxCell>
        <mxCell id="PNFzSRdrrLlA-0-j2CB9-12" value="Block Definition Dagram, Internal Block Diagram, Class Diagram" style="text;html=1;strokeColor=none;fillColor=none;align=left;verticalAlign=middle;whiteSpace=wrap;rounded=0;fontSize=17;" parent="1" vertex="1">
          <mxGeometry x="1210" y="640.67" width="130" height="30" as="geometry" />
        </mxCell>
        <mxCell id="PNFzSRdrrLlA-0-j2CB9-13" value="" style="endArrow=none;dashed=1;html=1;rounded=0;fontSize=17;strokeWidth=3;strokeColor=#6c8ebf;exitX=1;exitY=1;exitDx=0;exitDy=0;fillColor=#dae8fc;" parent="1" source="PNFzSRdrrLlA-0-j2CB9-2" edge="1">
          <mxGeometry width="50" height="50" relative="1" as="geometry">
            <mxPoint x="1147.5" y="106.17" as="sourcePoint" />
            <mxPoint x="1330" y="76.17" as="targetPoint" />
          </mxGeometry>
        </mxCell>
        <mxCell id="PNFzSRdrrLlA-0-j2CB9-14" value="" style="endArrow=none;dashed=1;html=1;rounded=0;fontSize=17;strokeWidth=3;strokeColor=#6c8ebf;exitX=1;exitY=1;exitDx=0;exitDy=0;fillColor=#dae8fc;" parent="1" edge="1">
          <mxGeometry width="50" height="50" relative="1" as="geometry">
            <mxPoint x="1190" y="710" as="sourcePoint" />
            <mxPoint x="1332" y="710" as="targetPoint" />
          </mxGeometry>
        </mxCell>
        <mxCell id="BeQGclCiMVtPp5bvM3r5-1" value="Functional Architecture of IBEA Model" style="rounded=1;whiteSpace=wrap;html=1;fontSize=17;fillColor=#fff2cc;strokeColor=#d6b656;" parent="1" vertex="1">
          <mxGeometry x="960" y="380.67" width="170" height="85.5" as="geometry" />
        </mxCell>
        <mxCell id="BeQGclCiMVtPp5bvM3r5-2" style="edgeStyle=orthogonalEdgeStyle;rounded=0;orthogonalLoop=1;jettySize=auto;html=1;exitX=0.5;exitY=1;exitDx=0;exitDy=0;" parent="1" source="PNFzSRdrrLlA-0-j2CB9-9" target="PNFzSRdrrLlA-0-j2CB9-9" edge="1">
          <mxGeometry relative="1" as="geometry" />
        </mxCell>
        <mxCell id="BeQGclCiMVtPp5bvM3r5-3" value="Requirements Documents" style="text;html=1;strokeColor=none;fillColor=none;align=left;verticalAlign=middle;whiteSpace=wrap;rounded=0;fontSize=17;" parent="1" vertex="1">
          <mxGeometry x="1210" y="268" width="130" height="30" as="geometry" />
        </mxCell>
        <mxCell id="eauuBhalH3cj8ruG4A8v-3" value="" style="shape=parallelogram;perimeter=parallelogramPerimeter;whiteSpace=wrap;html=1;fixedSize=1;size=110;treeFolding=0;arcSize=60;gradientColor=none;rounded=1;shadow=1;" vertex="1" parent="1">
          <mxGeometry x="130" y="100" width="430" height="120" as="geometry" />
        </mxCell>
        <mxCell id="eauuBhalH3cj8ruG4A8v-4" value="&lt;font style=&quot;font-size: 14px;&quot;&gt;&lt;b style=&quot;&quot;&gt;A2&lt;/b&gt;&lt;/font&gt;" style="ellipse;whiteSpace=wrap;html=1;shadow=1;portConstraintRotation=0;" vertex="1" parent="1">
          <mxGeometry x="276" y="110" width="70" height="40" as="geometry" />
        </mxCell>
        <mxCell id="eauuBhalH3cj8ruG4A8v-5" value="&lt;b style=&quot;border-color: var(--border-color); font-size: 14px;&quot;&gt;A3&lt;/b&gt;" style="ellipse;whiteSpace=wrap;html=1;shadow=1;" vertex="1" parent="1">
          <mxGeometry x="346" y="145" width="70" height="40" as="geometry" />
        </mxCell>
        <mxCell id="eauuBhalH3cj8ruG4A8v-6" value="&lt;b style=&quot;border-color: var(--border-color); font-size: 14px;&quot;&gt;A1&lt;/b&gt;" style="ellipse;whiteSpace=wrap;html=1;shadow=1;" vertex="1" parent="1">
          <mxGeometry x="210" y="170" width="70" height="40" as="geometry" />
        </mxCell>
        <mxCell id="eauuBhalH3cj8ruG4A8v-8" value="" style="endArrow=classic;html=1;rounded=0;entryX=1;entryY=0;entryDx=0;entryDy=0;exitX=0.253;exitY=0.941;exitDx=0;exitDy=0;exitPerimeter=0;" edge="1" parent="1" source="eauuBhalH3cj8ruG4A8v-4" target="eauuBhalH3cj8ruG4A8v-6">
          <mxGeometry width="50" height="50" relative="1" as="geometry">
            <mxPoint x="280" y="150" as="sourcePoint" />
            <mxPoint x="720" y="410" as="targetPoint" />
          </mxGeometry>
        </mxCell>
        <mxCell id="eauuBhalH3cj8ruG4A8v-9" value="" style="endArrow=classic;html=1;rounded=0;entryX=1;entryY=0;entryDx=0;entryDy=0;exitX=0.056;exitY=0.741;exitDx=0;exitDy=0;exitPerimeter=0;" edge="1" parent="1" source="eauuBhalH3cj8ruG4A8v-5">
          <mxGeometry width="50" height="50" relative="1" as="geometry">
            <mxPoint x="294" y="165" as="sourcePoint" />
            <mxPoint x="280" y="186" as="targetPoint" />
          </mxGeometry>
        </mxCell>
        <mxCell id="eauuBhalH3cj8ruG4A8v-10" value="Existing Business Process" style="text;html=1;strokeColor=none;fillColor=none;align=center;verticalAlign=middle;whiteSpace=wrap;rounded=0;fontSize=9;" vertex="1" parent="1">
          <mxGeometry x="400" y="97" width="130" height="30" as="geometry" />
        </mxCell>
        <mxCell id="eauuBhalH3cj8ruG4A8v-11" value="" style="shape=parallelogram;perimeter=parallelogramPerimeter;whiteSpace=wrap;html=1;fixedSize=1;size=110;treeFolding=0;arcSize=60;gradientColor=none;rounded=1;shadow=1;" vertex="1" parent="1">
          <mxGeometry x="130" y="235" width="430" height="125" as="geometry" />
        </mxCell>
        <mxCell id="eauuBhalH3cj8ruG4A8v-12" value="&lt;font style=&quot;font-size: 14px;&quot;&gt;&lt;b style=&quot;&quot;&gt;F2&lt;/b&gt;&lt;/font&gt;" style="ellipse;whiteSpace=wrap;html=1;shadow=1;portConstraintRotation=0;fillColor=#d5e8d4;strokeColor=#82b366;" vertex="1" parent="1">
          <mxGeometry x="276" y="246" width="70" height="40" as="geometry" />
        </mxCell>
        <mxCell id="eauuBhalH3cj8ruG4A8v-13" value="&lt;b style=&quot;border-color: var(--border-color); font-size: 14px;&quot;&gt;F4&lt;/b&gt;" style="ellipse;whiteSpace=wrap;html=1;shadow=1;fillColor=#d5e8d4;strokeColor=#82b366;" vertex="1" parent="1">
          <mxGeometry x="390" y="258" width="70" height="40" as="geometry" />
        </mxCell>
        <mxCell id="eauuBhalH3cj8ruG4A8v-14" value="&lt;b style=&quot;border-color: var(--border-color); font-size: 14px;&quot;&gt;F1&lt;/b&gt;" style="ellipse;whiteSpace=wrap;html=1;shadow=1;fillColor=#d5e8d4;strokeColor=#82b366;" vertex="1" parent="1">
          <mxGeometry x="210" y="306" width="70" height="40" as="geometry" />
        </mxCell>
        <mxCell id="eauuBhalH3cj8ruG4A8v-15" value="" style="endArrow=classic;html=1;rounded=0;entryX=1;entryY=0;entryDx=0;entryDy=0;exitX=0.253;exitY=0.941;exitDx=0;exitDy=0;exitPerimeter=0;" edge="1" parent="1" source="eauuBhalH3cj8ruG4A8v-12" target="eauuBhalH3cj8ruG4A8v-14">
          <mxGeometry width="50" height="50" relative="1" as="geometry">
            <mxPoint x="280" y="286" as="sourcePoint" />
            <mxPoint x="720" y="546" as="targetPoint" />
          </mxGeometry>
        </mxCell>
        <mxCell id="eauuBhalH3cj8ruG4A8v-16" value="" style="endArrow=classic;html=1;rounded=0;entryX=1;entryY=0;entryDx=0;entryDy=0;exitX=0.056;exitY=0.741;exitDx=0;exitDy=0;exitPerimeter=0;" edge="1" parent="1" source="eauuBhalH3cj8ruG4A8v-13">
          <mxGeometry width="50" height="50" relative="1" as="geometry">
            <mxPoint x="294" y="301" as="sourcePoint" />
            <mxPoint x="280" y="322" as="targetPoint" />
          </mxGeometry>
        </mxCell>
        <mxCell id="eauuBhalH3cj8ruG4A8v-17" value="Functional &amp;amp; Non-Functional Requirements" style="text;html=1;strokeColor=none;fillColor=none;align=center;verticalAlign=middle;whiteSpace=wrap;rounded=0;fontSize=9;" vertex="1" parent="1">
          <mxGeometry x="340" y="231" width="200" height="30" as="geometry" />
        </mxCell>
        <mxCell id="eauuBhalH3cj8ruG4A8v-18" value="&lt;b style=&quot;border-color: var(--border-color); font-size: 14px;&quot;&gt;F3&lt;/b&gt;" style="ellipse;whiteSpace=wrap;html=1;shadow=1;fillColor=#d5e8d4;strokeColor=#82b366;" vertex="1" parent="1">
          <mxGeometry x="346" y="306" width="70" height="40" as="geometry" />
        </mxCell>
        <mxCell id="eauuBhalH3cj8ruG4A8v-19" value="" style="endArrow=classic;html=1;rounded=0;entryX=1;entryY=1;entryDx=0;entryDy=0;exitX=0;exitY=0;exitDx=0;exitDy=0;" edge="1" parent="1" source="eauuBhalH3cj8ruG4A8v-18" target="eauuBhalH3cj8ruG4A8v-12">
          <mxGeometry width="50" height="50" relative="1" as="geometry">
            <mxPoint x="404" y="298" as="sourcePoint" />
            <mxPoint x="290" y="332" as="targetPoint" />
          </mxGeometry>
        </mxCell>
        <mxCell id="eauuBhalH3cj8ruG4A8v-20" value="" style="shape=parallelogram;perimeter=parallelogramPerimeter;whiteSpace=wrap;html=1;fixedSize=1;size=110;treeFolding=0;arcSize=60;rounded=1;shadow=1;fillColor=#dae8fc;strokeColor=#6c8ebf;" vertex="1" parent="1">
          <mxGeometry x="129" y="384" width="550" height="136" as="geometry" />
        </mxCell>
        <mxCell id="eauuBhalH3cj8ruG4A8v-21" value="&lt;font style=&quot;font-size: 14px;&quot;&gt;&lt;b style=&quot;&quot;&gt;F2&lt;/b&gt;&lt;/font&gt;" style="ellipse;whiteSpace=wrap;html=1;shadow=1;portConstraintRotation=0;fillColor=#d5e8d4;strokeColor=#82b366;" vertex="1" parent="1">
          <mxGeometry x="275" y="394" width="70" height="40" as="geometry" />
        </mxCell>
        <mxCell id="eauuBhalH3cj8ruG4A8v-22" value="&lt;b style=&quot;border-color: var(--border-color); font-size: 14px;&quot;&gt;F4&lt;/b&gt;" style="ellipse;whiteSpace=wrap;html=1;shadow=1;fillColor=#d5e8d4;strokeColor=#82b366;" vertex="1" parent="1">
          <mxGeometry x="389" y="406" width="70" height="40" as="geometry" />
        </mxCell>
        <mxCell id="eauuBhalH3cj8ruG4A8v-23" value="&lt;b style=&quot;border-color: var(--border-color); font-size: 14px;&quot;&gt;F1&lt;/b&gt;" style="ellipse;whiteSpace=wrap;html=1;shadow=1;fillColor=#d5e8d4;strokeColor=#82b366;" vertex="1" parent="1">
          <mxGeometry x="209" y="454" width="70" height="40" as="geometry" />
        </mxCell>
        <mxCell id="eauuBhalH3cj8ruG4A8v-24" value="" style="endArrow=classic;html=1;rounded=0;entryX=1;entryY=0;entryDx=0;entryDy=0;exitX=0.253;exitY=0.941;exitDx=0;exitDy=0;exitPerimeter=0;" edge="1" parent="1" source="eauuBhalH3cj8ruG4A8v-21" target="eauuBhalH3cj8ruG4A8v-23">
          <mxGeometry width="50" height="50" relative="1" as="geometry">
            <mxPoint x="279" y="434" as="sourcePoint" />
            <mxPoint x="719" y="694" as="targetPoint" />
          </mxGeometry>
        </mxCell>
        <mxCell id="eauuBhalH3cj8ruG4A8v-25" value="" style="endArrow=classic;html=1;rounded=0;entryX=1;entryY=0;entryDx=0;entryDy=0;exitX=0.056;exitY=0.741;exitDx=0;exitDy=0;exitPerimeter=0;" edge="1" parent="1" source="eauuBhalH3cj8ruG4A8v-22">
          <mxGeometry width="50" height="50" relative="1" as="geometry">
            <mxPoint x="293" y="449" as="sourcePoint" />
            <mxPoint x="279" y="470" as="targetPoint" />
          </mxGeometry>
        </mxCell>
        <mxCell id="eauuBhalH3cj8ruG4A8v-26" value="Functioanal &amp;amp; Logical Layer" style="text;html=1;strokeColor=none;fillColor=none;align=center;verticalAlign=middle;whiteSpace=wrap;rounded=0;fontSize=10;" vertex="1" parent="1">
          <mxGeometry x="519" y="384" width="131" height="30" as="geometry" />
        </mxCell>
        <mxCell id="eauuBhalH3cj8ruG4A8v-27" value="&lt;b style=&quot;border-color: var(--border-color); font-size: 14px;&quot;&gt;F3&lt;/b&gt;" style="ellipse;whiteSpace=wrap;html=1;shadow=1;fillColor=#d5e8d4;strokeColor=#82b366;" vertex="1" parent="1">
          <mxGeometry x="345" y="454" width="70" height="40" as="geometry" />
        </mxCell>
        <mxCell id="eauuBhalH3cj8ruG4A8v-28" value="" style="endArrow=classic;html=1;rounded=0;entryX=1;entryY=1;entryDx=0;entryDy=0;exitX=0;exitY=0;exitDx=0;exitDy=0;" edge="1" parent="1" source="eauuBhalH3cj8ruG4A8v-27" target="eauuBhalH3cj8ruG4A8v-21">
          <mxGeometry width="50" height="50" relative="1" as="geometry">
            <mxPoint x="403" y="446" as="sourcePoint" />
            <mxPoint x="289" y="480" as="targetPoint" />
          </mxGeometry>
        </mxCell>
        <mxCell id="eauuBhalH3cj8ruG4A8v-29" value="" style="rounded=1;whiteSpace=wrap;html=1;shadow=1;fillColor=#e1d5e7;strokeColor=#9673a6;" vertex="1" parent="1">
          <mxGeometry x="595" y="95" width="80" height="155" as="geometry" />
        </mxCell>
        <mxCell id="eauuBhalH3cj8ruG4A8v-67" style="edgeStyle=orthogonalEdgeStyle;rounded=0;orthogonalLoop=1;jettySize=auto;html=1;exitX=0;exitY=0.5;exitDx=0;exitDy=0;entryX=1;entryY=0.75;entryDx=0;entryDy=0;fontColor=#000000;fillColor=#f8cecc;strokeColor=#b85450;strokeWidth=2;startArrow=classic;startFill=1;" edge="1" parent="1" source="eauuBhalH3cj8ruG4A8v-30" target="eauuBhalH3cj8ruG4A8v-3">
          <mxGeometry relative="1" as="geometry" />
        </mxCell>
        <mxCell id="eauuBhalH3cj8ruG4A8v-68" style="edgeStyle=orthogonalEdgeStyle;rounded=0;orthogonalLoop=1;jettySize=auto;html=1;exitX=0.5;exitY=1;exitDx=0;exitDy=0;fillColor=#f8cecc;strokeColor=#b85450;strokeWidth=2;startArrow=classic;startFill=1;" edge="1" parent="1" source="eauuBhalH3cj8ruG4A8v-30" target="eauuBhalH3cj8ruG4A8v-11">
          <mxGeometry relative="1" as="geometry" />
        </mxCell>
        <mxCell id="eauuBhalH3cj8ruG4A8v-69" style="edgeStyle=orthogonalEdgeStyle;rounded=0;orthogonalLoop=1;jettySize=auto;html=1;exitX=0.75;exitY=1;exitDx=0;exitDy=0;entryX=1;entryY=0;entryDx=0;entryDy=0;fillColor=#f8cecc;strokeColor=#b85450;strokeWidth=2;startArrow=classic;startFill=1;" edge="1" parent="1" source="eauuBhalH3cj8ruG4A8v-30" target="eauuBhalH3cj8ruG4A8v-26">
          <mxGeometry relative="1" as="geometry" />
        </mxCell>
        <mxCell id="eauuBhalH3cj8ruG4A8v-30" value="&lt;b&gt;Reqs&lt;/b&gt;" style="rounded=1;whiteSpace=wrap;html=1;fillColor=#e1d5e7;strokeColor=#9673a6;" vertex="1" parent="1">
          <mxGeometry x="590" y="100" width="80" height="160" as="geometry" />
        </mxCell>
        <mxCell id="eauuBhalH3cj8ruG4A8v-32" value="&lt;b style=&quot;border-color: var(--border-color); font-size: 14px;&quot;&gt;F10&lt;/b&gt;" style="ellipse;whiteSpace=wrap;html=1;shadow=1;fillColor=#d5e8d4;strokeColor=#82b366;" vertex="1" parent="1">
          <mxGeometry x="479" y="441.5" width="70" height="40" as="geometry" />
        </mxCell>
        <mxCell id="eauuBhalH3cj8ruG4A8v-33" value="" style="endArrow=classic;html=1;rounded=0;entryX=1;entryY=0.5;entryDx=0;entryDy=0;exitX=0;exitY=0.5;exitDx=0;exitDy=0;" edge="1" parent="1" source="eauuBhalH3cj8ruG4A8v-32" target="eauuBhalH3cj8ruG4A8v-27">
          <mxGeometry width="50" height="50" relative="1" as="geometry">
            <mxPoint x="365" y="470" as="sourcePoint" />
            <mxPoint x="345" y="438" as="targetPoint" />
          </mxGeometry>
        </mxCell>
        <mxCell id="eauuBhalH3cj8ruG4A8v-34" value="" style="endArrow=classic;html=1;rounded=0;entryX=1;entryY=1;entryDx=0;entryDy=0;exitX=0;exitY=0;exitDx=0;exitDy=0;" edge="1" parent="1" source="eauuBhalH3cj8ruG4A8v-32" target="eauuBhalH3cj8ruG4A8v-22">
          <mxGeometry width="50" height="50" relative="1" as="geometry">
            <mxPoint x="489" y="472" as="sourcePoint" />
            <mxPoint x="425" y="484" as="targetPoint" />
          </mxGeometry>
        </mxCell>
        <mxCell id="eauuBhalH3cj8ruG4A8v-48" value="" style="shape=parallelogram;perimeter=parallelogramPerimeter;whiteSpace=wrap;html=1;fixedSize=1;size=110;treeFolding=0;arcSize=60;rounded=1;shadow=1;fillColor=#e1d5e7;strokeColor=#9673a6;" vertex="1" parent="1">
          <mxGeometry x="129.5" y="558" width="550" height="152" as="geometry" />
        </mxCell>
        <mxCell id="eauuBhalH3cj8ruG4A8v-49" value="" style="shape=parallelogram;perimeter=parallelogramPerimeter;whiteSpace=wrap;html=1;fixedSize=1;size=110;treeFolding=0;arcSize=60;rounded=1;shadow=1;fillColor=#dae8fc;strokeColor=#6c8ebf;" vertex="1" parent="1">
          <mxGeometry x="126.5" y="549" width="550" height="151" as="geometry" />
        </mxCell>
        <mxCell id="eauuBhalH3cj8ruG4A8v-55" value="Physical Layer" style="text;html=1;strokeColor=none;fillColor=none;align=center;verticalAlign=middle;whiteSpace=wrap;rounded=0;fontSize=10;" vertex="1" parent="1">
          <mxGeometry x="559" y="549" width="88.5" height="30" as="geometry" />
        </mxCell>
        <mxCell id="eauuBhalH3cj8ruG4A8v-61" value="" style="shape=parallelogram;perimeter=parallelogramPerimeter;whiteSpace=wrap;html=1;fixedSize=1;size=90;treeFolding=0;arcSize=60;rounded=1;shadow=1;fillColor=#f8cecc;strokeColor=#b85450;" vertex="1" parent="1">
          <mxGeometry x="166" y="556" width="220" height="110" as="geometry" />
        </mxCell>
        <mxCell id="eauuBhalH3cj8ruG4A8v-50" value="&lt;font style=&quot;font-size: 14px;&quot;&gt;&lt;b style=&quot;&quot;&gt;F2&lt;/b&gt;&lt;/font&gt;" style="ellipse;whiteSpace=wrap;html=1;shadow=1;portConstraintRotation=0;fillColor=#d5e8d4;strokeColor=#82b366;" vertex="1" parent="1">
          <mxGeometry x="272.5" y="559" width="70" height="40" as="geometry" />
        </mxCell>
        <mxCell id="eauuBhalH3cj8ruG4A8v-52" value="&lt;b style=&quot;border-color: var(--border-color); font-size: 14px;&quot;&gt;F1&lt;/b&gt;" style="ellipse;whiteSpace=wrap;html=1;shadow=1;fillColor=#d5e8d4;strokeColor=#82b366;" vertex="1" parent="1">
          <mxGeometry x="207.5" y="619" width="70" height="40" as="geometry" />
        </mxCell>
        <mxCell id="eauuBhalH3cj8ruG4A8v-53" value="" style="endArrow=classic;html=1;rounded=0;entryX=1;entryY=0;entryDx=0;entryDy=0;exitX=0.253;exitY=0.941;exitDx=0;exitDy=0;exitPerimeter=0;" edge="1" parent="1" source="eauuBhalH3cj8ruG4A8v-50" target="eauuBhalH3cj8ruG4A8v-52">
          <mxGeometry width="50" height="50" relative="1" as="geometry">
            <mxPoint x="276.5" y="599" as="sourcePoint" />
            <mxPoint x="716.5" y="859" as="targetPoint" />
          </mxGeometry>
        </mxCell>
        <mxCell id="eauuBhalH3cj8ruG4A8v-63" value="" style="shape=parallelogram;perimeter=parallelogramPerimeter;whiteSpace=wrap;html=1;fixedSize=1;size=90;treeFolding=0;arcSize=60;rounded=1;shadow=1;fillColor=#f8cecc;strokeColor=#b85450;" vertex="1" parent="1">
          <mxGeometry x="309" y="556" width="220" height="110" as="geometry" />
        </mxCell>
        <mxCell id="eauuBhalH3cj8ruG4A8v-51" value="&lt;b style=&quot;border-color: var(--border-color); font-size: 14px;&quot;&gt;F4&lt;/b&gt;" style="ellipse;whiteSpace=wrap;html=1;shadow=1;fillColor=#d5e8d4;strokeColor=#82b366;" vertex="1" parent="1">
          <mxGeometry x="386.5" y="571" width="70" height="40" as="geometry" />
        </mxCell>
        <mxCell id="eauuBhalH3cj8ruG4A8v-56" value="&lt;b style=&quot;border-color: var(--border-color); font-size: 14px;&quot;&gt;F3&lt;/b&gt;" style="ellipse;whiteSpace=wrap;html=1;shadow=1;fillColor=#d5e8d4;strokeColor=#82b366;" vertex="1" parent="1">
          <mxGeometry x="342.5" y="619" width="70" height="40" as="geometry" />
        </mxCell>
        <mxCell id="eauuBhalH3cj8ruG4A8v-54" value="" style="endArrow=classic;html=1;rounded=0;entryX=1;entryY=0;entryDx=0;entryDy=0;exitX=0.056;exitY=0.741;exitDx=0;exitDy=0;exitPerimeter=0;" edge="1" parent="1" source="eauuBhalH3cj8ruG4A8v-51">
          <mxGeometry width="50" height="50" relative="1" as="geometry">
            <mxPoint x="290.5" y="614" as="sourcePoint" />
            <mxPoint x="276.5" y="635" as="targetPoint" />
          </mxGeometry>
        </mxCell>
        <mxCell id="eauuBhalH3cj8ruG4A8v-57" value="" style="endArrow=classic;html=1;rounded=0;entryX=1;entryY=1;entryDx=0;entryDy=0;exitX=0;exitY=0;exitDx=0;exitDy=0;" edge="1" parent="1" source="eauuBhalH3cj8ruG4A8v-56" target="eauuBhalH3cj8ruG4A8v-50">
          <mxGeometry width="50" height="50" relative="1" as="geometry">
            <mxPoint x="400.5" y="611" as="sourcePoint" />
            <mxPoint x="286.5" y="645" as="targetPoint" />
          </mxGeometry>
        </mxCell>
        <mxCell id="eauuBhalH3cj8ruG4A8v-64" value="Software" style="text;html=1;strokeColor=none;fillColor=none;align=center;verticalAlign=middle;whiteSpace=wrap;rounded=0;fontSize=9;" vertex="1" parent="1">
          <mxGeometry x="456.5" y="562" width="58.5" height="13" as="geometry" />
        </mxCell>
        <mxCell id="eauuBhalH3cj8ruG4A8v-66" value="" style="shape=parallelogram;perimeter=parallelogramPerimeter;whiteSpace=wrap;html=1;fixedSize=1;size=56;treeFolding=0;arcSize=50;rounded=1;shadow=1;fillColor=#f8cecc;strokeColor=#b85450;" vertex="1" parent="1">
          <mxGeometry x="453" y="596" width="160" height="70" as="geometry" />
        </mxCell>
        <mxCell id="eauuBhalH3cj8ruG4A8v-65" value="Hardware" style="text;html=1;strokeColor=none;fillColor=none;align=center;verticalAlign=middle;whiteSpace=wrap;rounded=0;fontSize=9;" vertex="1" parent="1">
          <mxGeometry x="220.5" y="598" width="58.5" height="13" as="geometry" />
        </mxCell>
        <mxCell id="eauuBhalH3cj8ruG4A8v-58" value="&lt;b style=&quot;border-color: var(--border-color); font-size: 14px;&quot;&gt;F10&lt;/b&gt;" style="ellipse;whiteSpace=wrap;html=1;shadow=1;fillColor=#d5e8d4;strokeColor=#82b366;" vertex="1" parent="1">
          <mxGeometry x="498" y="609" width="70" height="40" as="geometry" />
        </mxCell>
        <mxCell id="eauuBhalH3cj8ruG4A8v-60" value="" style="endArrow=classic;html=1;rounded=0;entryX=1;entryY=1;entryDx=0;entryDy=0;exitX=0;exitY=0;exitDx=0;exitDy=0;" edge="1" parent="1" source="eauuBhalH3cj8ruG4A8v-58" target="eauuBhalH3cj8ruG4A8v-51">
          <mxGeometry width="50" height="50" relative="1" as="geometry">
            <mxPoint x="486.5" y="637" as="sourcePoint" />
            <mxPoint x="422.5" y="649" as="targetPoint" />
          </mxGeometry>
        </mxCell>
        <mxCell id="eauuBhalH3cj8ruG4A8v-59" value="" style="endArrow=classic;html=1;rounded=0;entryX=1;entryY=0.5;entryDx=0;entryDy=0;exitX=0;exitY=0.5;exitDx=0;exitDy=0;" edge="1" parent="1" source="eauuBhalH3cj8ruG4A8v-58" target="eauuBhalH3cj8ruG4A8v-56">
          <mxGeometry width="50" height="50" relative="1" as="geometry">
            <mxPoint x="362.5" y="635" as="sourcePoint" />
            <mxPoint x="342.5" y="603" as="targetPoint" />
          </mxGeometry>
        </mxCell>
        <mxCell id="eauuBhalH3cj8ruG4A8v-70" style="edgeStyle=orthogonalEdgeStyle;rounded=0;orthogonalLoop=1;jettySize=auto;html=1;exitX=1;exitY=1;exitDx=0;exitDy=0;entryX=1;entryY=0.25;entryDx=0;entryDy=0;fillColor=#f8cecc;strokeColor=#b85450;strokeWidth=2;startArrow=classic;startFill=1;" edge="1" parent="1" source="eauuBhalH3cj8ruG4A8v-30" target="eauuBhalH3cj8ruG4A8v-66">
          <mxGeometry relative="1" as="geometry">
            <Array as="points">
              <mxPoint x="670" y="617" />
            </Array>
          </mxGeometry>
        </mxCell>
        <mxCell id="eauuBhalH3cj8ruG4A8v-72" value="" style="endArrow=classic;html=1;rounded=0;exitX=0.5;exitY=1;exitDx=0;exitDy=0;fillColor=#f8cecc;strokeColor=#b85450;dashed=1;" edge="1" parent="1" source="eauuBhalH3cj8ruG4A8v-6" target="eauuBhalH3cj8ruG4A8v-14">
          <mxGeometry width="50" height="50" relative="1" as="geometry">
            <mxPoint x="245" y="215" as="sourcePoint" />
            <mxPoint x="490" y="415" as="targetPoint" />
          </mxGeometry>
        </mxCell>
        <mxCell id="eauuBhalH3cj8ruG4A8v-73" value="" style="endArrow=classic;html=1;rounded=0;exitX=0.5;exitY=1;exitDx=0;exitDy=0;fillColor=#f8cecc;strokeColor=#b85450;dashed=1;entryX=0.5;entryY=0;entryDx=0;entryDy=0;" edge="1" parent="1" source="eauuBhalH3cj8ruG4A8v-5" target="eauuBhalH3cj8ruG4A8v-18">
          <mxGeometry width="50" height="50" relative="1" as="geometry">
            <mxPoint x="255" y="220" as="sourcePoint" />
            <mxPoint x="255" y="310" as="targetPoint" />
          </mxGeometry>
        </mxCell>
        <mxCell id="eauuBhalH3cj8ruG4A8v-74" value="" style="endArrow=classic;html=1;rounded=0;exitX=0.5;exitY=1;exitDx=0;exitDy=0;fillColor=#f8cecc;strokeColor=#b85450;dashed=1;" edge="1" parent="1" source="eauuBhalH3cj8ruG4A8v-4" target="eauuBhalH3cj8ruG4A8v-12">
          <mxGeometry width="50" height="50" relative="1" as="geometry">
            <mxPoint x="265" y="230" as="sourcePoint" />
            <mxPoint x="265" y="320" as="targetPoint" />
          </mxGeometry>
        </mxCell>
        <mxCell id="eauuBhalH3cj8ruG4A8v-75" value="" style="endArrow=classic;html=1;rounded=0;exitX=0.5;exitY=1;exitDx=0;exitDy=0;fillColor=#f8cecc;strokeColor=#b85450;dashed=1;" edge="1" parent="1" source="eauuBhalH3cj8ruG4A8v-14" target="eauuBhalH3cj8ruG4A8v-23">
          <mxGeometry width="50" height="50" relative="1" as="geometry">
            <mxPoint x="244" y="380" as="sourcePoint" />
            <mxPoint x="274" y="370" as="targetPoint" />
          </mxGeometry>
        </mxCell>
        <mxCell id="eauuBhalH3cj8ruG4A8v-76" value="" style="endArrow=classic;html=1;rounded=0;exitX=0.5;exitY=1;exitDx=0;exitDy=0;fillColor=#f8cecc;strokeColor=#b85450;dashed=1;entryX=0.5;entryY=0;entryDx=0;entryDy=0;" edge="1" parent="1" target="eauuBhalH3cj8ruG4A8v-52">
          <mxGeometry width="50" height="50" relative="1" as="geometry">
            <mxPoint x="244" y="519" as="sourcePoint" />
            <mxPoint x="284" y="389" as="targetPoint" />
          </mxGeometry>
        </mxCell>
        <mxCell id="eauuBhalH3cj8ruG4A8v-77" value="" style="endArrow=classic;html=1;rounded=0;exitX=0.5;exitY=1;exitDx=0;exitDy=0;fillColor=#f8cecc;strokeColor=#b85450;dashed=1;entryX=0.5;entryY=0;entryDx=0;entryDy=0;" edge="1" parent="1" source="eauuBhalH3cj8ruG4A8v-18" target="eauuBhalH3cj8ruG4A8v-27">
          <mxGeometry width="50" height="50" relative="1" as="geometry">
            <mxPoint x="380" y="380" as="sourcePoint" />
            <mxPoint x="294" y="390" as="targetPoint" />
          </mxGeometry>
        </mxCell>
        <mxCell id="eauuBhalH3cj8ruG4A8v-78" value="" style="endArrow=classic;html=1;rounded=0;exitX=0.5;exitY=1;exitDx=0;exitDy=0;fillColor=#f8cecc;strokeColor=#b85450;dashed=1;entryX=0.5;entryY=0;entryDx=0;entryDy=0;" edge="1" parent="1" source="eauuBhalH3cj8ruG4A8v-22" target="eauuBhalH3cj8ruG4A8v-51">
          <mxGeometry width="50" height="50" relative="1" as="geometry">
            <mxPoint x="304" y="310" as="sourcePoint" />
            <mxPoint x="304" y="400" as="targetPoint" />
          </mxGeometry>
        </mxCell>
        <mxCell id="eauuBhalH3cj8ruG4A8v-80" value="Operational Analysis" style="text;html=1;strokeColor=none;fillColor=none;align=left;verticalAlign=middle;whiteSpace=wrap;rounded=0;fontStyle=1;fontSize=18;" vertex="1" parent="1">
          <mxGeometry x="720" y="126.5" width="230" height="30" as="geometry" />
        </mxCell>
        <mxCell id="eauuBhalH3cj8ruG4A8v-81" value="What the user of the system need to accomplish" style="text;html=1;strokeColor=none;fillColor=none;align=left;verticalAlign=middle;whiteSpace=wrap;rounded=0;fontStyle=0;fontSize=18;" vertex="1" parent="1">
          <mxGeometry x="720" y="163.5" width="230" height="30" as="geometry" />
        </mxCell>
        <mxCell id="eauuBhalH3cj8ruG4A8v-82" value="Functional &amp;amp; Non-Functional Need" style="text;html=1;strokeColor=none;fillColor=none;align=left;verticalAlign=middle;whiteSpace=wrap;rounded=0;fontStyle=1;fontSize=18;" vertex="1" parent="1">
          <mxGeometry x="720" y="250" width="230" height="30" as="geometry" />
        </mxCell>
        <mxCell id="eauuBhalH3cj8ruG4A8v-83" value="What the system has to accomplish to the users" style="text;html=1;strokeColor=none;fillColor=none;align=left;verticalAlign=middle;whiteSpace=wrap;rounded=0;fontStyle=0;fontSize=18;" vertex="1" parent="1">
          <mxGeometry x="720" y="299" width="230" height="30" as="geometry" />
        </mxCell>
        <mxCell id="eauuBhalH3cj8ruG4A8v-84" value="Functional &amp;amp; Logical Architecture" style="text;html=1;strokeColor=none;fillColor=none;align=left;verticalAlign=middle;whiteSpace=wrap;rounded=0;fontStyle=1;fontSize=18;" vertex="1" parent="1">
          <mxGeometry x="720" y="422" width="230" height="30" as="geometry" />
        </mxCell>
        <mxCell id="eauuBhalH3cj8ruG4A8v-85" value="How the system will work to fulfill the expectations" style="text;html=1;strokeColor=none;fillColor=none;align=left;verticalAlign=middle;whiteSpace=wrap;rounded=0;fontStyle=0;fontSize=18;" vertex="1" parent="1">
          <mxGeometry x="720" y="471" width="230" height="30" as="geometry" />
        </mxCell>
        <mxCell id="eauuBhalH3cj8ruG4A8v-86" value="Physical Architecture" style="text;html=1;strokeColor=none;fillColor=none;align=left;verticalAlign=middle;whiteSpace=wrap;rounded=0;fontStyle=1;fontSize=18;" vertex="1" parent="1">
          <mxGeometry x="720" y="579" width="230" height="30" as="geometry" />
        </mxCell>
        <mxCell id="eauuBhalH3cj8ruG4A8v-87" value="How the system will develoved and built" style="text;html=1;strokeColor=none;fillColor=none;align=left;verticalAlign=middle;whiteSpace=wrap;rounded=0;fontStyle=0;fontSize=18;" vertex="1" parent="1">
          <mxGeometry x="720" y="628" width="230" height="30" as="geometry" />
        </mxCell>
      </root>
    </mxGraphModel>
  </diagram>
</mxfile>
